HIERARCHY
ROOT Root
{
  OFFSET 0.0 0.0 0.0
  CHANNELS 6 Xposition Yposition Zposition Zrotation Yrotation Xrotation
  JOINT Hips
  {
    OFFSET 0.0 100.0 0.0
    CHANNELS 6 Xposition Yposition Zposition Zrotation Yrotation Xrotation
    JOINT Spine1
    {
      OFFSET 5.003913 -0.037094 -0.013727
      CHANNELS 3 Zrotation Yrotation Xrotation
      JOINT Spine2
      {
        OFFSET 7.125363 -1e-06 0.0
        CHANNELS 3 Zrotation Yrotation Xrotation
        JOINT Chest
        {
          OFFSET 7.594027 1e-06 0.0
          CHANNELS 3 Zrotation Yrotation Xrotation
          JOINT Neck1
          {
            OFFSET 26.313086 -0.460272 -0.181672
            CHANNELS 3 Zrotation Yrotation Xrotation
            JOINT Neck2
            {
              OFFSET 8.045911 0.0 0.0
              CHANNELS 3 Zrotation Yrotation Xrotation
              JOINT Head
              {
                OFFSET 6.432774 0.0 0.0
                CHANNELS 3 Zrotation Yrotation Xrotation
                JOINT HeadEnd
                {
                  OFFSET 16.169773 0.06451 0.00362
                  CHANNELS 3 Zrotation Yrotation Xrotation
                }
                JOINT Jaw
                {
                  OFFSET 0.108741 3.12938 0.002639
                  CHANNELS 3 Zrotation Yrotation Xrotation
                }
                JOINT LeftEye
                {
                  OFFSET 4.45173 8.166359 3.206392
                  CHANNELS 3 Zrotation Yrotation Xrotation
                }
                JOINT RightEye
                {
                  OFFSET 4.436895 8.135758 -3.222429
                  CHANNELS 3 Zrotation Yrotation Xrotation
                }
              }
            }
          }
          JOINT LeftShoulder
          {
            OFFSET 23.218927 5.195579 1.621656
            CHANNELS 3 Zrotation Yrotation Xrotation
            JOINT LeftArm
            {
              OFFSET 15.902118 2e-06 -2e-06
              CHANNELS 3 Zrotation Yrotation Xrotation
              JOINT LeftForeArm
              {
                OFFSET 28.739307 0.0 -1e-06
                CHANNELS 3 Zrotation Yrotation Xrotation
                JOINT LeftHand
                {
                  OFFSET 27.093981 -4e-06 0.0
                  CHANNELS 3 Zrotation Yrotation Xrotation
                  JOINT LeftHandThumb1
                  {
                    OFFSET 2.276781 3.380274 0.83384
                    CHANNELS 3 Zrotation Yrotation Xrotation
                    JOINT LeftHandThumb2
                    {
                      OFFSET 4.705309 -1e-06 -1e-06
                      CHANNELS 3 Zrotation Yrotation Xrotation
                      JOINT LeftHandThumb3
                      {
                        OFFSET 2.798515 0.0 3e-06
                        CHANNELS 3 Zrotation Yrotation Xrotation
                        JOINT LeftHandThumbEnd
                        {
                          OFFSET 3.180793 4e-06 -4e-06
                          CHANNELS 3 Zrotation Yrotation Xrotation
                        }
                      }
                    }
                  }
                  JOINT LeftHandIndex1
                  {
                    OFFSET 3.247786 2.352677 0.137192
                    CHANNELS 3 Zrotation Yrotation Xrotation
                    JOINT LeftHandIndex2
                    {
                      OFFSET 6.367095 1e-06 0.0
                      CHANNELS 3 Zrotation Yrotation Xrotation
                      JOINT LeftHandIndex3
                      {
                        OFFSET 3.662364 0.0 0.0
                        CHANNELS 3 Zrotation Yrotation Xrotation
                        JOINT LeftHandIndex4
                        {
                          OFFSET 2.329242 4e-06 -4e-06
                          CHANNELS 3 Zrotation Yrotation Xrotation
                          JOINT LeftHandIndexEnd
                          {
                            OFFSET 2.767823 1e-06 0.0
                            CHANNELS 3 Zrotation Yrotation Xrotation
                          }
                        }
                      }
                    }
                  }
                  JOINT LeftHandMiddle1
                  {
                    OFFSET 3.163612 0.945023 -0.406112
                    CHANNELS 3 Zrotation Yrotation Xrotation
                    JOINT LeftHandMiddle2
                    {
                      OFFSET 6.276789 3e-06 0.0
                      CHANNELS 3 Zrotation Yrotation Xrotation
                      JOINT LeftHandMiddle3
                      {
                        OFFSET 4.35652 -1e-06 4e-06
                        CHANNELS 3 Zrotation Yrotation Xrotation
                        JOINT LeftHandMiddle4
                        {
                          OFFSET 2.996877 0.0 8e-06
                          CHANNELS 3 Zrotation Yrotation Xrotation
                          JOINT LeftHandMiddleEnd
                          {
                            OFFSET 2.323256 3e-06 -4e-06
                            CHANNELS 3 Zrotation Yrotation Xrotation
                          }
                        }
                      }
                    }
                  }
                  JOINT LeftHandRing1
                  {
                    OFFSET 2.882606 -0.309162 0.107445
                    CHANNELS 3 Zrotation Yrotation Xrotation
                    JOINT LeftHandRing2
                    {
                      OFFSET 6.033198 0.0 4e-06
                      CHANNELS 3 Zrotation Yrotation Xrotation
                      JOINT LeftHandRing3
                      {
                        OFFSET 4.350578 3e-06 0.0
                        CHANNELS 3 Zrotation Yrotation Xrotation
                        JOINT LeftHandRing4
                        {
                          OFFSET 2.651321 2e-06 -7e-06
                          CHANNELS 3 Zrotation Yrotation Xrotation
                          JOINT LeftHandRingEnd
                          {
                            OFFSET 1.937663 1e-06 -4e-06
                            CHANNELS 3 Zrotation Yrotation Xrotation
                          }
                        }
                      }
                    }
                  }
                  JOINT LeftHandPinky1
                  {
                    OFFSET 2.865315 -1.525436 0.575687
                    CHANNELS 3 Zrotation Yrotation Xrotation
                    JOINT LeftHandPinky2
                    {
                      OFFSET 5.54936 1e-06 -8e-06
                      CHANNELS 3 Zrotation Yrotation Xrotation
                      JOINT LeftHandPinky3
                      {
                        OFFSET 3.070974 0.0 -4e-06
                        CHANNELS 3 Zrotation Yrotation Xrotation
                        JOINT LeftHandPinky4
                        {
                          OFFSET 1.549672 1e-06 0.0
                          CHANNELS 3 Zrotation Yrotation Xrotation
                          JOINT LeftHandPinkyEnd
                          {
                            OFFSET 1.952123 0.0 0.0
                            CHANNELS 3 Zrotation Yrotation Xrotation
                          }
                        }
                      }
                    }
                  }
                }
              }
            }
          }
          JOINT RightShoulder
          {
            OFFSET 23.161716 5.296122 -1.380114
            CHANNELS 3 Zrotation Yrotation Xrotation
            JOINT RightArm
            {
              OFFSET -16.027195 -2e-06 1.1e-05
              CHANNELS 3 Zrotation Yrotation Xrotation
              JOINT RightForeArm
              {
                OFFSET -28.736639 4e-06 2e-06
                CHANNELS 3 Zrotation Yrotation Xrotation
                JOINT RightHand
                {
                  OFFSET -27.133619 6e-06 0.0
                  CHANNELS 3 Zrotation Yrotation Xrotation
                  JOINT RightHandThumb1
                  {
                    OFFSET -2.274328 -3.351035 -0.83067
                    CHANNELS 3 Zrotation Yrotation Xrotation
                    JOINT RightHandThumb2
                    {
                      OFFSET -4.703594 -3e-06 2e-06
                      CHANNELS 3 Zrotation Yrotation Xrotation
                      JOINT RightHandThumb3
                      {
                        OFFSET -2.794935 -4e-06 -3e-06
                        CHANNELS 3 Zrotation Yrotation Xrotation
                        JOINT RightHandThumbEnd
                        {
                          OFFSET -3.183852 4e-06 1e-06
                          CHANNELS 3 Zrotation Yrotation Xrotation
                        }
                      }
                    }
                  }
                  JOINT RightHandIndex1
                  {
                    OFFSET -3.253496 -2.33755 -0.127667
                    CHANNELS 3 Zrotation Yrotation Xrotation
                    JOINT RightHandIndex2
                    {
                      OFFSET -6.344434 0.0 0.0
                      CHANNELS 3 Zrotation Yrotation Xrotation
                      JOINT RightHandIndex3
                      {
                        OFFSET -3.654871 0.0 -8e-06
                        CHANNELS 3 Zrotation Yrotation Xrotation
                        JOINT RightHandIndex4
                        {
                          OFFSET -2.327586 -1e-06 0.0
                          CHANNELS 3 Zrotation Yrotation Xrotation
                          JOINT RightHandIndexEnd
                          {
                            OFFSET -2.770001 3e-06 8e-06
                            CHANNELS 3 Zrotation Yrotation Xrotation
                          }
                        }
                      }
                    }
                  }
                  JOINT RightHandMiddle1
                  {
                    OFFSET -3.168223 -0.944764 0.411762
                    CHANNELS 3 Zrotation Yrotation Xrotation
                    JOINT RightHandMiddle2
                    {
                      OFFSET -6.266691 -1e-06 -4e-06
                      CHANNELS 3 Zrotation Yrotation Xrotation
                      JOINT RightHandMiddle3
                      {
                        OFFSET -4.348901 0.0 0.0
                        CHANNELS 3 Zrotation Yrotation Xrotation
                        JOINT RightHandMiddle4
                        {
                          OFFSET -3.00024 2e-06 -4e-06
                          CHANNELS 3 Zrotation Yrotation Xrotation
                          JOINT RightHandMiddleEnd
                          {
                            OFFSET -2.321477 -4e-06 -4e-06
                            CHANNELS 3 Zrotation Yrotation Xrotation
                          }
                        }
                      }
                    }
                  }
                  JOINT RightHandRing1
                  {
                    OFFSET -2.885654 0.293261 -0.119232
                    CHANNELS 3 Zrotation Yrotation Xrotation
                    JOINT RightHandRing2
                    {
                      OFFSET -6.032835 -1e-06 -4e-06
                      CHANNELS 3 Zrotation Yrotation Xrotation
                      JOINT RightHandRing3
                      {
                        OFFSET -4.33881 0.0 -4e-06
                        CHANNELS 3 Zrotation Yrotation Xrotation
                        JOINT RightHandRing4
                        {
                          OFFSET -2.654903 -4e-06 -4e-06
                          CHANNELS 3 Zrotation Yrotation Xrotation
                          JOINT RightHandRingEnd
                          {
                            OFFSET -1.935122 0.0 4e-06
                            CHANNELS 3 Zrotation Yrotation Xrotation
                          }
                        }
                      }
                    }
                  }
                  JOINT RightHandPinky1
                  {
                    OFFSET -2.866241 1.503904 -0.60527
                    CHANNELS 3 Zrotation Yrotation Xrotation
                    JOINT RightHandPinky2
                    {
                      OFFSET -5.553177 -2e-06 0.0
                      CHANNELS 3 Zrotation Yrotation Xrotation
                      JOINT RightHandPinky3
                      {
                        OFFSET -3.062664 -1e-06 -4e-06
                        CHANNELS 3 Zrotation Yrotation Xrotation
                        JOINT RightHandPinky4
                        {
                          OFFSET -1.546529 2e-06 4e-06
                          CHANNELS 3 Zrotation Yrotation Xrotation
                          JOINT RightHandPinkyEnd
                          {
                            OFFSET -1.952341 0.0 -4e-06
                            CHANNELS 3 Zrotation Yrotation Xrotation
                          }
                        }
                      }
                    }
                  }
                }
              }
            }
          }
        }
      }
    }
    JOINT LeftLeg
    {
      OFFSET -8.443107 2.567604 10.043214
      CHANNELS 3 Zrotation Yrotation Xrotation
      JOINT LeftShin
      {
        OFFSET 43.229198 1e-06 -1e-06
        CHANNELS 3 Zrotation Yrotation Xrotation
        JOINT LeftFoot
        {
          OFFSET 42.298611 1e-06 1e-06
          CHANNELS 3 Zrotation Yrotation Xrotation
          JOINT LeftToeBase
          {
            OFFSET 14.165858 1e-06 0.0
            CHANNELS 3 Zrotation Yrotation Xrotation
            JOINT LeftToeEnd
            {
              OFFSET 6.7141 -0.234461 0.0
              CHANNELS 3 Zrotation Yrotation Xrotation
            }
          }
        }
      }
    }
    JOINT RightLeg
    {
      OFFSET -8.303923 2.592729 -10.047278
      CHANNELS 3 Zrotation Yrotation Xrotation
      JOINT RightShin
      {
        OFFSET -43.369682 0.0 1e-06
        CHANNELS 3 Zrotation Yrotation Xrotation
        JOINT RightFoot
        {
          OFFSET -42.260784 4e-06 2e-06
          CHANNELS 3 Zrotation Yrotation Xrotation
          JOINT RightToeBase
          {
            OFFSET -14.222245 -2e-06 -1e-06
            CHANNELS 3 Zrotation Yrotation Xrotation
            JOINT RightToeEnd
            {
              OFFSET -6.660062 0.232574 -2e-06
              CHANNELS 3 Zrotation Yrotation Xrotation
            }
          }
        }
      }
    }
  }
}
MOTION
Frames: 4
Frame Time: 0.03333333333333333
0.0 0.0 0.0 0.0 -0.0 0.0 0.760772 97.30191 -4.113138 90.15538 6.730906 89.823059 1.392487 -1.00361 0.310277 -10.574239 -0.9925 0.410505 23.259745 -3.374854 -2.345955 51.552963 -8.883286 2.196114 -2.876236 -0.514801 3.747425 -48.403519 1.907765 2.857359 5e-06 -0.0 1e-06 0.149086 0.006797 0.025818 0.321272 -0.103381 0.061993 0.290324 0.111307 0.0119 -119.508682 -81.117767 136.117722 30.706236 -63.109447 -35.917355 96.429428 0.981367 0.001765 -12.040846 16.406221 -79.816681 17.636629 -26.322731 52.411186 -19.466665 -14.395598 29.410393 0.0 -8.774822 -2e-06 16.601517 -17.98201 6.493289 -0.609775 -1.795654 -3.889328 -4.80709 -11.046811 -2.93785 3e-06 -20.976019 3e-06 -5.019973 -25.033556 -4.031882 6e-06 -1e-06 -0.0 -10.634535 -5.686972 -3.565588 10.573275 -17.922953 -3.113903 2e-06 -13.82121 1e-06 -0.501777 -31.181505 -4.027016 -11.873363 -60.080189 7.576093 -13.982718 -7.150201 -2.875041 13.772731 -8.401491 -3.218242 0.347735 -34.211555 0.771653 -0.963028 -17.733372 2.621021 0.0 2e-06 -1e-06 -17.346418 -20.095219 -4.201782 21.757561 -1.638374 3.866426 1e-06 -6.338823 2e-06 -1.69759 -22.591742 -6.194005 -1e-06 -3e-06 -2e-06 110.197922 -85.048882 86.745575 36.437546 -69.007164 -48.250381 96.803398 -0.66684 0.094346 -10.403114 18.066683 -88.584938 22.182108 -20.375895 49.933319 -16.701815 -16.743528 28.47653 -3e-06 -12.690601 -0.0 15.983329 -16.509991 3.155693 -0.105921 -1.513858 -4.275879 -5.039036 -5.61287 -2.953558 5e-06 -11.020525 -3e-06 -6.111294 -15.895334 -3.84047 -1e-06 0.0 -0.0 -10.283371 -5.680288 -4.341839 11.028296 -11.302407 -2.372634 -1.384268 -14.238583 -6.320123 -0.625437 -26.924192 -3.827599 -5.031765 -50.228416 -1.90454 -13.708526 -7.363478 -3.720938 18.14115 -14.052741 -3.242677 8e-06 -18.78727 -4e-06 -0.429714 -8.456045 2.555502 0.0 0.0 0.0 -15.923532 -20.094484 -5.473584 30.41921 -7.190827 1.735921 2e-06 -8.162924 -1e-06 -1.861899 -22.861467 -6.167944 0.0 -5e-06 1e-06 169.445602 -4.572346 -10.942287 31.742321 0.060494 -0.022671 -83.056526 3.639483 -1.99044 -8.417341 1.647098 2.086964 -0.999999 -0.0 -0.0 -10.317603 -4.872664 -9.831721 32.052406 0.026791 0.085371 -83.206436 -6.499719 -4.799979 -8.44788 0.813483 1.646126 -1.000002 0.0 -0.0 
0.0 0.0 0.0 0.0 -0.0 0.0 0.780126 97.279114 -4.293485 90.194016 6.671065 89.5989 1.456347 -1.028209 0.305111 -10.554639 -0.984733 0.420466 23.275454 -3.374636 -2.39099 51.51442 -8.889986 2.182205 -2.875254 -0.488319 3.577683 -48.291451 1.957638 2.696705 5e-06 -0.0 -0.0 0.144386 0.003695 0.046045 0.332937 -0.107405 0.083029 0.303318 0.109042 0.030935 -120.979889 -81.20974 137.549149 31.067482 -62.84557 -36.446049 96.608856 0.907403 0.087892 -12.074503 16.095848 -79.259163 17.636627 -26.322733 52.411205 -19.466661 -14.395596 29.410393 -1e-06 -8.774821 -3e-06 16.645912 -18.008688 6.456744 -0.609779 -1.795655 -3.889326 -4.807088 -11.046811 -2.937852 3e-06 -20.976019 2e-06 -5.01997 -25.033556 -4.031882 6e-06 -0.0 -1e-06 -10.634534 -5.686969 -3.565588 10.573271 -17.922949 -3.113901 -0.0 -13.821208 3e-06 -0.50178 -31.181501 -4.027012 -11.862062 -60.064392 7.584948 -13.982713 -7.150197 -2.875044 13.772728 -8.401491 -3.218239 0.347732 -34.211544 0.771655 -0.96303 -17.73337 2.62102 -0.0 0.0 -1e-06 -17.346416 -20.095217 -4.201784 21.757555 -1.638375 3.866428 2e-06 -6.338823 1e-06 -1.697587 -22.591742 -6.194006 -1e-06 -3e-06 -3e-06 112.127098 -85.138161 84.739525 38.235626 -68.481735 -49.964813 97.515129 -0.543519 0.193031 -10.980999 18.460442 -89.202087 22.182117 -20.375898 49.933327 -16.701809 -16.74353 28.47653 -2e-06 -12.690605 -1e-06 15.932471 -16.414169 3.211095 -0.105919 -1.513857 -4.27588 -5.039041 -5.612872 -2.953556 4e-06 -11.020526 -1e-06 -6.1113 -15.895334 -3.840472 -0.0 -0.0 -0.0 -10.283373 -5.680289 -4.341839 11.028296 -11.302406 -2.372631 -1.384271 -14.238582 -6.320123 -0.62544 -26.924191 -3.827604 -5.043993 -50.213608 -1.838991 -13.708526 -7.363478 -3.720939 18.141151 -14.052741 -3.242672 7e-06 -18.78727 -2e-06 -0.429712 -8.456045 2.555504 0.0 -0.0 -1e-06 -15.923539 -20.094486 -5.473586 30.419222 -7.190827 1.735927 1e-06 -8.162925 0.0 -1.861903 -22.861473 -6.167943 -0.0 -4e-06 -1e-06 169.282684 -4.554379 -11.085858 31.793585 0.050583 -0.008131 -82.996346 3.607249 -1.974111 -8.408187 1.645968 2.08432 -0.999998 -0.0 0.0 -10.612026 -4.912771 -9.686434 32.202984 0.029969 0.093543 -83.149849 -6.421818 -4.752012 -8.403656 0.818887 1.643833 -1.000002 1e-06 0.0 
0.0 0.0 0.0 0.0 -0.0 0.0 0.792019 97.273239 -4.462434 90.228104 6.565599 89.38974 1.525799 -1.059602 0.283579 -10.550133 -0.992181 0.431648 23.210991 -3.372922 -2.432507 51.349472 -8.84477 2.17162 -2.877428 -0.453573 3.431934 -48.109444 1.996971 2.478526 6e-06 0.0 -0.0 0.142288 -0.000405 0.063835 0.338371 -0.112169 0.099948 0.309745 0.105673 0.0491 -122.249977 -81.349915 138.768921 31.45784 -62.606388 -36.956558 96.781662 0.856212 0.117864 -12.046067 15.807453 -78.612137 17.636629 -26.322729 52.411198 -19.466665 -14.395598 29.410389 0.0 -8.774823 -2e-06 16.687731 -18.045437 6.418103 -0.609774 -1.795654 -3.889329 -4.807089 -11.046811 -2.937851 4e-06 -20.976019 2e-06 -5.01997 -25.03356 -4.031883 7e-06 -3e-06 1e-06 -10.634535 -5.686971 -3.565586 10.573277 -17.922951 -3.113904 -0.0 -13.82121 2e-06 -0.501777 -31.181507 -4.027016 -11.847726 -59.981903 7.602685 -13.982715 -7.150199 -2.875042 13.772731 -8.401493 -3.21824 0.347735 -34.211555 0.771652 -0.963027 -17.73337 2.621018 -1e-06 1e-06 -0.0 -17.346422 -20.095221 -4.201779 21.757561 -1.638374 3.866428 -1e-06 -6.338825 1e-06 -1.697591 -22.591747 -6.194008 -1e-06 -3e-06 -4e-06 113.724625 -85.215866 83.020927 39.962246 -67.987312 -51.598484 98.197975 -0.412563 0.286583 -11.54199 18.826433 -89.748482 22.182114 -20.375904 49.933331 -16.701813 -16.743528 28.476536 -2e-06 -12.690603 -1e-06 15.847613 -16.327049 3.267843 -0.105916 -1.513854 -4.275882 -5.039041 -5.612872 -2.953558 6e-06 -11.020525 -3e-06 -6.111298 -15.895334 -3.840473 0.0 -0.0 1e-06 -10.283369 -5.680287 -4.34184 11.028296 -11.302406 -2.372632 -1.38427 -14.238583 -6.320121 -0.625437 -26.924192 -3.827601 -5.02035 -50.121647 -1.816126 -13.708524 -7.363476 -3.72094 18.14115 -14.052742 -3.242675 6e-06 -18.787271 -2e-06 -0.429712 -8.456043 2.555505 0.0 -1e-06 -1e-06 -15.923536 -20.094486 -5.473586 30.41921 -7.190827 1.735924 2e-06 -8.162925 1e-06 -1.8619 -22.861473 -6.167942 -1e-06 -3e-06 -2e-06 169.103958 -4.549798 -11.233783 31.780184 0.041396 0.00466 -82.898529 3.580554 -1.996659 -8.413142 1.635241 2.077958 -0.999999 -0.0 -0.0 -10.915279 -4.942275 -9.57619 32.278236 0.030634 0.090619 -83.055084 -6.301024 -4.67698 -8.356451 0.817912 1.640245 -1.000003 1e-06 0.0 
0.0 0.0 0.0 0.0 -0.0 0.0 0.793978 97.279236 -4.617937 90.260483 6.42695 89.167717 1.593833 -1.100827 0.253835 -10.541573 -1.013114 0.435227 23.064047 -3.385696 -2.464199 51.012913 -8.757615 2.138539 -2.887002 -0.408296 3.333084 -47.870197 2.030764 2.245929 6e-06 0.0 -0.0 0.141271 -0.004057 0.074408 0.338274 -0.113625 0.109809 0.308601 0.100163 0.059653 -123.617645 -81.482559 140.097488 31.728626 -62.346855 -37.291119 96.931015 0.83918 0.11365 -11.843129 15.585366 -78.008286 17.636625 -26.322737 52.411194 -19.466658 -14.395598 29.410389 -1e-06 -8.774822 -1e-06 16.770554 -18.099766 6.357324 -0.609777 -1.795654 -3.889327 -4.807088 -11.046809 -2.937849 4e-06 -20.976017 3e-06 -5.019972 -25.033556 -4.031878 6e-06 -0.0 0.0 -10.634533 -5.686969 -3.565585 10.573276 -17.922947 -3.113901 0.0 -13.821208 2e-06 -0.501781 -31.181498 -4.027012 -11.854379 -59.915314 7.628299 -13.982714 -7.150198 -2.87504 13.772731 -8.401491 -3.218243 0.347732 -34.211544 0.771657 -0.96303 -17.73337 2.62102 -1e-06 1e-06 -1e-06 -17.346418 -20.095211 -4.201778 21.757555 -1.638373 3.866425 -0.0 -6.338824 3e-06 -1.69759 -22.591742 -6.194004 -1e-06 -3e-06 -3e-06 115.213821 -85.318054 81.352409 41.609795 -67.581711 -53.166618 98.851517 -0.309505 0.359987 -12.002803 19.210897 -90.108315 22.182108 -20.375891 49.933308 -16.701809 -16.743526 28.476524 -1e-06 -12.6906 -0.0 15.747524 -16.251087 3.330703 -0.105916 -1.513855 -4.275881 -5.039038 -5.612869 -2.953556 5e-06 -11.020521 -3e-06 -6.111297 -15.89533 -3.840469 0.0 0.0 0.0 -10.283366 -5.680285 -4.341837 11.028291 -11.302403 -2.372632 -1.384266 -14.238578 -6.32012 -0.625434 -26.924187 -3.827603 -4.976258 -49.989151 -1.817128 -13.708522 -7.363474 -3.720938 18.141146 -14.052736 -3.242675 6e-06 -18.787266 -3e-06 -0.42971 -8.456044 2.555502 -1e-06 -0.0 3e-06 -15.92353 -20.094479 -5.473584 30.419205 -7.190824 1.735923 2e-06 -8.162924 -1e-06 -1.861904 -22.861467 -6.167941 1e-06 -5e-06 -0.0 168.92334 -4.557334 -11.396025 31.719034 0.036756 0.011278 -82.781754 3.55231 -2.077431 -8.438451 1.617609 2.071848 -0.999998 -0.0 -0.0 -11.2283 -4.95108 -9.445357 32.304569 0.028251 0.081878 -82.938889 -6.159391 -4.593171 -8.310452 0.811363 1.63611 -1.000003 1e-06 -0.0 
